<svg width="25" height="24" viewBox="0 0 25 24" fill="none" xmlns="http://www.w3.org/2000/svg">
<g clip-path="url(#clip0_1_233)">
<path d="M21.2273 0H3.77273C1.96525 0 0.5 1.46525 0.5 3.27273V20.7273C0.5 22.5347 1.96525 24 3.77273 24H21.2273C23.0347 24 24.5 22.5347 24.5 20.7273V3.27273C24.5 1.46525 23.0347 0 21.2273 0Z" fill="white"/>
<path d="M19.9713 7.46047C19.6153 7.9923 19.1819 8.468 18.6854 8.87183C18.621 8.92305 18.569 8.98817 18.5334 9.06232C18.4977 9.13647 18.4793 9.21773 18.4795 9.30001V9.35047C18.4738 10.4221 18.2771 11.4842 17.8986 12.4868C17.5087 13.5377 16.9296 14.5083 16.19 15.3505C15.2005 16.4784 13.926 17.3196 12.5 17.7859C11.5603 18.0909 10.5779 18.2437 9.58996 18.2386C8.02539 18.237 6.48902 17.8221 5.13633 17.0359C5.08789 17.0084 5.0498 16.9658 5.02788 16.9145C5.00597 16.8633 5.00143 16.8063 5.01496 16.7523C5.02868 16.6988 5.0599 16.6515 5.10365 16.6179C5.1474 16.5843 5.20115 16.5663 5.25633 16.5668H5.62996C6.81918 16.5666 7.9812 16.211 8.96678 15.5455C8.37927 15.4494 7.82954 15.1935 7.37782 14.8058C6.9261 14.4181 6.58983 13.9135 6.40587 13.3473C6.39684 13.3194 6.39523 13.2896 6.4012 13.2609C6.40717 13.2321 6.4205 13.2055 6.4399 13.1835C6.45929 13.1615 6.48408 13.1449 6.51183 13.1353C6.53957 13.1258 6.56932 13.1237 6.59814 13.1291C6.77796 13.1633 6.96056 13.1806 7.1436 13.1809H7.21178C6.64234 12.9193 6.1609 12.4982 5.82573 11.9687C5.49055 11.4392 5.31598 10.8239 5.32314 10.1973C5.32353 10.1679 5.33152 10.1391 5.34632 10.1137C5.36113 10.0883 5.38226 10.0672 5.40765 10.0523C5.43304 10.0375 5.46183 10.0295 5.49123 10.0291C5.52062 10.0287 5.54963 10.0359 5.57542 10.05C5.80646 10.179 6.05427 10.2754 6.31178 10.3364C5.80185 9.83224 5.47365 9.17313 5.37864 8.46239C5.28363 7.75165 5.42718 7.02948 5.78678 6.4091C5.80057 6.38624 5.81959 6.36697 5.84226 6.35287C5.86494 6.33877 5.89063 6.33024 5.91723 6.32798C5.94384 6.32572 5.9706 6.32979 5.99533 6.33986C6.02006 6.34993 6.04205 6.36572 6.05951 6.38592C6.77369 7.26878 7.65797 7.99916 8.65984 8.53371C9.66172 9.06826 10.7608 9.39609 11.8918 9.49774H11.9041C11.9208 9.49719 11.9373 9.49329 11.9525 9.48626C11.9677 9.47923 11.9814 9.46923 11.9927 9.45683C12.0035 9.44443 12.0117 9.4299 12.0166 9.41416C12.0216 9.39843 12.0232 9.38185 12.0213 9.36547C11.9791 8.96945 12.0049 8.56913 12.0977 8.18183C12.179 7.84276 12.3173 7.51998 12.5068 7.22728C12.9044 6.60277 13.5101 6.13905 14.2168 5.91819C14.5482 5.81427 14.8935 5.76094 15.2409 5.76001C16.0286 5.75923 16.7895 6.04633 17.3804 6.56728C17.4557 6.63419 17.5524 6.67193 17.6531 6.67365C17.6863 6.6731 17.7193 6.66852 17.7513 6.66001C18.3068 6.51947 18.8391 6.29948 19.3318 6.00683C19.3614 5.9897 19.3956 5.9819 19.4297 5.98444C19.4639 5.98699 19.4965 5.99977 19.5233 6.02111C19.55 6.04245 19.5698 6.07137 19.5799 6.10409C19.59 6.13681 19.59 6.17182 19.58 6.20456C19.4147 6.72067 19.122 7.18683 18.7291 7.56001C19.0835 7.47535 19.4295 7.3585 19.7627 7.21092C19.7963 7.19595 19.8338 7.19235 19.8697 7.20065C19.9055 7.20895 19.9376 7.2287 19.9612 7.25692C19.9848 7.28513 19.9986 7.32027 20.0004 7.357C20.0022 7.39373 19.992 7.43006 19.9713 7.46047Z" fill="#090F1D"/>
</g>
<defs>
<clipPath id="clip0_1_233">
<rect width="24" height="24" fill="white" transform="translate(0.5)"/>
</clipPath>
</defs>
</svg>
